<?xml version="1.0" encoding="UTF-8"?>
<svg version="1.1" xmlns="http://www.w3.org/2000/svg" width="512" height="512">
<path d="M0 0 C1.38357487 -0.00374047 2.76714764 -0.00834357 4.15071708 -0.01373065 C7.93849753 -0.02592725 11.72618944 -0.02570413 15.51398504 -0.02334189 C19.60480626 -0.02293288 23.69559941 -0.03398102 27.78640747 -0.04345703 C35.79612843 -0.06005002 43.80581995 -0.06556582 51.81555667 -0.06668179 C58.32889356 -0.06763313 64.84222076 -0.07174776 71.35555458 -0.07808304 C89.83585024 -0.09569135 108.31612269 -0.10492263 126.7964268 -0.10342209 C128.28996462 -0.10330222 128.28996462 -0.10330222 129.81367493 -0.10317993 C130.81058744 -0.10309817 131.80749996 -0.10301641 132.83462194 -0.10293217 C148.98522071 -0.10211954 165.13572616 -0.1212524 181.28629794 -0.14945666 C197.88311275 -0.17821069 214.4798821 -0.19199555 231.07672244 -0.19026911 C240.38911653 -0.18960605 249.7014128 -0.19506161 259.01378441 -0.21662521 C266.94363989 -0.23487024 274.87335322 -0.23915718 282.80322065 -0.22560637 C286.84539317 -0.21909324 290.88729324 -0.21889918 294.92943954 -0.23631287 C298.63759733 -0.2521227 302.34526843 -0.24910034 306.05341492 -0.2317446 C308.01384345 -0.22725769 309.97428757 -0.24226977 311.93465632 -0.25822389 C324.219349 -0.16338392 334.61623933 2.69914858 344.36958313 10.26742554 C345.40083313 11.00992554 346.43208313 11.75242554 347.49458313 12.51742554 C354.55991239 19.27556657 358.60439205 26.96092221 361.36958313 36.26742554 C361.6576886 37.18588257 361.6576886 37.18588257 361.95161438 38.12289429 C364.59561812 51.68885738 361.52154953 65.47614236 354.05708313 76.99008179 C346.22136245 87.56467706 335.53178715 94.33912172 322.59902012 96.79314685 C319.50796301 97.24710291 316.61657409 97.39495003 313.49546623 97.3988533 C312.33791639 97.40269445 311.18036655 97.40653559 309.98773944 97.41049314 C308.09437734 97.40919341 308.09437734 97.40919341 306.1627655 97.40786743 C304.80082971 97.41045298 303.43889468 97.41346667 302.07696068 97.41687083 C298.33975938 97.42492185 294.60257731 97.42672934 290.86536837 97.4274683 C286.83248157 97.42932218 282.79960468 97.43687121 278.76672363 97.44360352 C269.95044004 97.45717405 261.13416101 97.46320961 252.31786871 97.46761417 C246.81035739 97.47037886 241.30284782 97.47461664 235.79533768 97.47911835 C220.53936562 97.49130953 205.28339496 97.50160902 190.02741814 97.50499344 C189.05136828 97.505213 188.07531843 97.50543257 187.06969131 97.50565879 C186.09133764 97.50587707 185.11298396 97.50609535 184.10498321 97.50632024 C182.12254516 97.5067637 180.14010711 97.50721026 178.15766907 97.50765991 C177.17431631 97.50788134 176.19096356 97.50810277 175.17781223 97.50833091 C159.24952486 97.51227762 143.32128327 97.52972845 127.39301358 97.55301943 C111.0301843 97.57675223 94.66737798 97.58919617 78.30453122 97.59036136 C69.12126301 97.59127705 59.93805445 97.59700276 50.7548027 97.61518097 C42.93395307 97.63060801 35.11318154 97.63568709 27.29231958 97.62744287 C23.30500773 97.62354552 19.31785303 97.62442098 15.33056068 97.63850021 C11.67364499 97.6512943 8.01700362 97.64999379 4.36008801 97.6379095 C2.4246767 97.63504601 0.4892604 97.64684643 -1.44611275 97.65933156 C-16.92715808 97.57237452 -29.95075059 93.53556092 -41.30229187 82.79086304 C-50.89472569 72.39369483 -55.04617318 60.32566684 -54.83744812 46.32211304 C-53.9041561 32.55165343 -48.35345722 20.78719813 -38.28666687 11.30648804 C-26.53690465 2.28681763 -14.44218453 -0.03507748 0 0 Z " fill="#7EBDE7" transform="translate(80.63041687011719,164.73257446289063)"/>
<path d="M0 0 C1.15693314 -0.00384115 2.31386628 -0.00768229 3.505858 -0.01163983 C4.76741728 -0.01077335 6.02897657 -0.00990687 7.32876492 -0.00901413 C8.68998802 -0.01159969 10.05121036 -0.01461338 11.41243166 -0.01801753 C15.14770234 -0.02606856 18.88295379 -0.02787604 22.61823213 -0.028615 C26.64909304 -0.03046889 30.67994405 -0.03801797 34.71079922 -0.04475021 C43.52301785 -0.05832111 52.33523193 -0.06435647 61.14745927 -0.06876087 C66.65296827 -0.07152569 72.15847553 -0.07576352 77.66398335 -0.08026505 C92.91566419 -0.09245665 108.16734363 -0.10275581 123.41902924 -0.10614014 C124.39482753 -0.1063597 125.37062582 -0.10657927 126.37599375 -0.10680549 C127.35409197 -0.10702377 128.33219018 -0.10724204 129.33992773 -0.10746694 C131.3218381 -0.1079104 133.30374847 -0.10835696 135.28565884 -0.10880661 C136.7602945 -0.10913875 136.7602945 -0.10913875 138.26472079 -0.10947761 C154.18586609 -0.11342363 170.10696556 -0.13087216 186.02809317 -0.15416613 C202.38527721 -0.17790432 218.74243829 -0.19034313 235.09963983 -0.19150805 C244.27902754 -0.19242349 253.45835556 -0.19814248 262.63772678 -0.21632767 C270.45598598 -0.23176205 278.27416704 -0.23682951 286.09243859 -0.22858956 C290.0778491 -0.2246947 294.06310242 -0.22555538 298.04849339 -0.23964691 C301.70484454 -0.25245618 305.36092149 -0.25112741 309.01727264 -0.2390562 C310.9499565 -0.23619765 312.88264542 -0.24798157 314.81529099 -0.26047826 C330.97016945 -0.16989004 343.03940763 3.67996247 354.83570766 14.74470901 C365.1934767 25.52596434 368.67456232 38.26445988 368.40602016 52.91658401 C367.94915448 62.91989678 364.19582846 71.31260453 358.12867641 79.13142776 C357.01492641 80.67830276 357.01492641 80.67830276 355.87867641 82.25642776 C349.12053538 89.32175703 341.43517974 93.36623668 332.12867641 96.13142776 C331.53587271 96.30864481 330.94306901 96.48586185 330.33230156 96.6684491 C327.65130637 97.23172257 325.16619947 97.26080538 322.42536163 97.26564884 C321.25499361 97.27010669 320.08462559 97.27456453 318.87879187 97.27915746 C317.59195216 97.2789731 316.30511246 97.27878873 314.97927761 97.27859879 C313.59915642 97.28189863 312.21903619 97.28562446 310.8389172 97.28974026 C307.0421223 97.29975501 303.24534322 97.30347623 299.44853699 97.30612957 C295.35492572 97.31003429 291.26132695 97.31961265 287.16772366 97.32834244 C277.2782538 97.34810415 267.38878292 97.35817359 257.49929824 97.36707023 C252.84026946 97.37145441 248.18124182 97.37682096 243.52221394 97.3820591 C228.03042143 97.39907258 212.53862964 97.41356555 197.04682922 97.42080784 C193.02666695 97.42271769 189.00650468 97.42463803 184.98634243 97.42659378 C183.48758065 97.42731939 183.48758065 97.42731939 181.95854085 97.42805966 C165.78182632 97.4363554 149.60518585 97.46168406 133.42850364 97.49417446 C116.81374042 97.52727209 100.1990148 97.54525912 83.58421844 97.54845208 C74.25834432 97.55061488 64.93257813 97.55932969 55.60673618 97.58491325 C47.6621521 97.60665737 39.71770215 97.61465252 31.77309168 97.60494647 C27.72284053 97.60041223 23.67286594 97.6022365 19.62265301 97.62170792 C15.90694288 97.63941607 12.19170947 97.63828068 8.47599375 97.62281062 C6.51139132 97.619335 4.54678345 97.63540368 2.58225161 97.6524151 C-11.73381714 97.54951615 -24.45704395 93.2958105 -35.05882359 83.50642776 C-44.30142706 73.64640341 -48.76373233 62.00426825 -49.24632359 48.56892776 C-48.7921055 34.98188249 -43.67957656 23.26875981 -34.39476109 13.45955276 C-24.6191984 4.44061258 -13.2428435 0.01657057 0 0 Z " fill="#7EBDE7" transform="translate(74.87132358551025,25.868572235107422)"/>
<path d="M0 0 C16.21336047 15.15094654 26.78161489 35.41969961 30.4375 57.3125 C30.54835938 57.96605469 30.65921875 58.61960937 30.7734375 59.29296875 C34.42971349 85.62803773 27.82506142 112.41824598 12.5625 134.125 C-4.24647459 155.92770879 -26.11196626 170.72852737 -53.5625 175.3125 C-54.21605469 175.42335938 -54.86960937 175.53421875 -55.54296875 175.6484375 C-81.87803773 179.30471349 -108.66824598 172.70006142 -130.375 157.4375 C-152.17770879 140.62852541 -166.97852737 118.76303374 -171.5625 91.3125 C-171.67335938 90.65894531 -171.78421875 90.00539063 -171.8984375 89.33203125 C-175.55471349 62.99696227 -168.95006142 36.20675402 -153.6875 14.5 C-136.87852541 -7.30270879 -115.01303374 -22.10352737 -87.5625 -26.6875 C-86.90894531 -26.79835938 -86.25539063 -26.90921875 -85.58203125 -27.0234375 C-53.65808117 -31.45565571 -24.00194004 -20.75028057 0 0 Z " fill="#222323" transform="translate(454.5625,309.6875)"/>
<path d="M0 0 C0.65411169 -0.00297112 1.30822338 -0.00594224 1.98215663 -0.0090034 C4.16047074 -0.01763201 6.33872952 -0.01919368 8.51705933 -0.02069092 C10.08466203 -0.02532331 11.65226361 -0.03034853 13.21986389 -0.03573608 C17.47017836 -0.04882332 21.72047705 -0.05529809 25.97080851 -0.05974674 C28.63065583 -0.06268399 31.29049891 -0.06679006 33.95034409 -0.07125092 C42.28508868 -0.08491745 50.6198235 -0.09458769 58.95457852 -0.09845281 C68.55188642 -0.10292873 78.14905156 -0.12045852 87.74631608 -0.1494534 C95.18011167 -0.17112661 102.61386726 -0.18116012 110.04769409 -0.18249393 C114.4802277 -0.18353811 118.91262696 -0.18936288 123.34512711 -0.20731354 C127.51978077 -0.2238916 131.69420049 -0.22590294 135.8688755 -0.21717453 C137.39255084 -0.21640928 138.91623927 -0.2206785 140.43988228 -0.23063278 C156.19085131 -0.32741912 170.6643069 2.37540728 182.62594604 13.39044189 C194.55814993 26.27147163 197.05715546 39.86832073 196.42623901 56.76495361 C196.05276636 61.7157559 194.55062997 65.79000844 192.24703979 70.14044189 C191.79973511 71.00927002 191.35243042 71.87809814 190.89157104 72.77325439 C184.54720115 84.16930755 175.11168003 91.85222636 162.54302979 95.71382141 C155.10730018 97.68302872 147.6864383 97.56918039 140.05807495 97.54449463 C138.45194527 97.55020816 136.84581965 97.5571762 135.23970032 97.56529236 C130.90691309 97.58313122 126.57432941 97.58207287 122.24151659 97.57634997 C118.61111083 97.57324437 114.98074339 97.57936581 111.35034311 97.58538872 C102.77876642 97.59940215 94.20728946 97.59789948 85.63571167 97.58648682 C76.82252829 97.57501104 68.00964941 97.58907944 59.19650614 97.61588329 C51.60206716 97.63810725 44.0077233 97.64466257 36.41325414 97.63880688 C31.88964182 97.63545179 27.36622458 97.63775517 22.84263992 97.65505791 C18.58575524 97.67063205 14.3293183 97.66645678 10.07245064 97.64775276 C8.52017229 97.64409551 6.96785999 97.6470906 5.41561317 97.65763855 C-10.34076729 97.75644166 -24.12732612 94.42335497 -35.94046021 83.51544189 C-45.18306368 73.65541754 -49.64536895 62.01328238 -50.12796021 48.57794189 C-49.67374212 34.99089662 -44.56121318 23.27777394 -35.27639771 13.46856689 C-25.14815889 4.12424749 -13.64646424 0.03480987 0 0 Z " fill="#7EBCE7" transform="translate(75.75296020507813,313.85955810546875)"/>
<path d="M0 0 C5.67476113 1.96434039 9.31400331 5.62800662 12 11 C12.08400529 12.59447464 12.10727467 14.19240545 12.09765625 15.7890625 C12.09282227 17.20058594 12.09282227 17.20058594 12.08789062 18.640625 C12.07532227 20.11789062 12.07532227 20.11789062 12.0625 21.625 C12.05798828 22.61757813 12.05347656 23.61015625 12.04882812 24.6328125 C12.03702145 27.0886016 12.020554 29.54427104 12 32 C12.57443848 31.98428955 13.14887695 31.9685791 13.74072266 31.95239258 C16.36871309 31.88964487 18.99654537 31.85088494 21.625 31.8125 C22.52863281 31.78736328 23.43226563 31.76222656 24.36328125 31.73632812 C30.46640723 31.66950558 34.97973306 32.18060592 39.64453125 36.53515625 C43.83364552 42.01322875 44.62152402 45.18625519 44 52 C42.17465409 57.27322153 39.39280797 59.79691086 35 63 C32.11734851 63.96088383 30.32337729 64.11670941 27.33203125 64.09765625 C26.43935547 64.09443359 25.54667969 64.09121094 24.62695312 64.08789062 C23.23379883 64.07532227 23.23379883 64.07532227 21.8125 64.0625 C20.87212891 64.05798828 19.93175781 64.05347656 18.96289062 64.04882812 C16.64186288 64.03704626 14.32096356 64.02059558 12 64 C12.01571045 64.57443848 12.0314209 65.14887695 12.04760742 65.74072266 C12.11035513 68.36871309 12.14911506 70.99654537 12.1875 73.625 C12.21263672 74.52863281 12.23777344 75.43226563 12.26367188 76.36328125 C12.33053847 82.47042998 11.79410632 86.9366699 7.5 91.64453125 C2.09279135 95.85483174 -2.27893677 96.82862423 -9 96 C-14.3035228 93.29820537 -18.09832298 89.70503105 -20 84 C-20.08106686 82.44578271 -20.10756898 80.88832973 -20.09765625 79.33203125 C-20.09443359 78.43935547 -20.09121094 77.54667969 -20.08789062 76.62695312 C-20.07951172 75.69818359 -20.07113281 74.76941406 -20.0625 73.8125 C-20.05798828 72.87212891 -20.05347656 71.93175781 -20.04882812 70.96289062 C-20.03704626 68.64186288 -20.02059558 66.32096356 -20 64 C-20.90709717 64.0314209 -20.90709717 64.0314209 -21.83251953 64.06347656 C-24.59650771 64.14708945 -27.36022913 64.19880054 -30.125 64.25 C-31.07632812 64.28351563 -32.02765625 64.31703125 -33.0078125 64.3515625 C-38.89001907 64.43325981 -42.37483407 64.02411425 -47 60 C-51.3022759 55.23261319 -52.36282503 51.56252705 -52.28125 45.28125 C-51.69180611 40.50020514 -48.85179203 37.75038822 -45.375 34.6875 C-41.99606345 32.28667666 -40.30697095 31.87766885 -36.2109375 31.90234375 C-35.26992188 31.90556641 -34.32890625 31.90878906 -33.359375 31.91210938 C-31.88210938 31.92467773 -31.88210938 31.92467773 -30.375 31.9375 C-29.38242187 31.94201172 -28.38984375 31.94652344 -27.3671875 31.95117188 C-24.9113984 31.96297855 -22.45572896 31.979446 -20 32 C-20.02094727 31.39526855 -20.04189453 30.79053711 -20.06347656 30.16748047 C-20.14708945 27.40349229 -20.19880054 24.63977087 -20.25 21.875 C-20.28351563 20.92367188 -20.31703125 19.97234375 -20.3515625 18.9921875 C-20.4332339 13.11184648 -20.02763982 9.62080133 -16 5 C-10.58420856 0.22894564 -7.09115125 -0.64682799 0 0 Z " fill="#7EBBE5" transform="translate(388,336)"/>
</svg>
